<mxfile host="app.diagrams.net" agent="Mozilla/5.0 (Windows NT 10.0; Win64; x64) AppleWebKit/537.36 (KHTML, like Gecko) Chrome/139.0.0.0 Safari/537.36" version="28.1.1">
  <diagram id="Ht1M8jgEwFfnCIfOTk4-" name="Page-1">
    <mxGraphModel dx="1721" dy="2990" grid="1" gridSize="10" guides="1" tooltips="1" connect="1" arrows="1" fold="1" page="1" pageScale="1" pageWidth="1169" pageHeight="827" math="0" shadow="0">
      <root>
        <mxCell id="0" />
        <mxCell id="1" parent="0" />
        <mxCell id="U0uxILK9Wh6L97J0J260-76" style="edgeStyle=orthogonalEdgeStyle;rounded=0;orthogonalLoop=1;jettySize=auto;html=1;endArrow=none;endFill=0;startArrow=classic;startFill=1;" edge="1" parent="1" source="U0uxILK9Wh6L97J0J260-70">
          <mxGeometry relative="1" as="geometry">
            <mxPoint x="880" y="-410" as="targetPoint" />
          </mxGeometry>
        </mxCell>
        <mxCell id="U0uxILK9Wh6L97J0J260-84" style="edgeStyle=orthogonalEdgeStyle;rounded=0;orthogonalLoop=1;jettySize=auto;html=1;" edge="1" parent="1" source="U0uxILK9Wh6L97J0J260-70" target="U0uxILK9Wh6L97J0J260-82">
          <mxGeometry relative="1" as="geometry" />
        </mxCell>
        <mxCell id="U0uxILK9Wh6L97J0J260-70" value="INTERNET" style="ellipse;shape=cloud;whiteSpace=wrap;html=1;verticalAlign=middle;movable=1;resizable=1;rotatable=1;deletable=1;editable=1;locked=0;connectable=1;" vertex="1" parent="1">
          <mxGeometry x="589.45" y="-368.75" width="147.6" height="96.75" as="geometry" />
        </mxCell>
        <mxCell id="UEzPUAAOIrF-is8g5C7q-74" value="Production Account" style="points=[[0,0],[0.25,0],[0.5,0],[0.75,0],[1,0],[1,0.25],[1,0.5],[1,0.75],[1,1],[0.75,1],[0.5,1],[0.25,1],[0,1],[0,0.75],[0,0.5],[0,0.25]];outlineConnect=0;gradientColor=none;html=1;whiteSpace=wrap;fontSize=12;fontStyle=0;shape=mxgraph.aws4.group;grIcon=mxgraph.aws4.group_aws_cloud_alt;strokeColor=#232F3E;fillColor=none;verticalAlign=top;align=left;spacingLeft=30;fontColor=#232F3E;dashed=0;labelBackgroundColor=#ffffff;container=1;pointerEvents=0;collapsible=0;recursiveResize=0;" parent="1" vertex="1">
          <mxGeometry x="55" y="-160" width="1255" height="1100" as="geometry" />
        </mxCell>
        <mxCell id="U0uxILK9Wh6L97J0J260-6" value="EKS VPC" style="sketch=0;outlineConnect=0;gradientColor=none;html=1;whiteSpace=wrap;fontSize=12;fontStyle=0;shape=mxgraph.aws4.group;grIcon=mxgraph.aws4.group_vpc;strokeColor=#B6BABF;fillColor=none;verticalAlign=top;align=left;spacingLeft=30;fontColor=#B6BABF;dashed=0;" vertex="1" parent="UEzPUAAOIrF-is8g5C7q-74">
          <mxGeometry x="415" y="140" width="740" height="780" as="geometry" />
        </mxCell>
        <mxCell id="U0uxILK9Wh6L97J0J260-58" style="edgeStyle=orthogonalEdgeStyle;rounded=0;orthogonalLoop=1;jettySize=auto;html=1;startArrow=classic;startFill=1;" edge="1" parent="UEzPUAAOIrF-is8g5C7q-74" source="U0uxILK9Wh6L97J0J260-4" target="U0uxILK9Wh6L97J0J260-6">
          <mxGeometry relative="1" as="geometry" />
        </mxCell>
        <mxCell id="U0uxILK9Wh6L97J0J260-59" value="VPC PEERING" style="edgeLabel;html=1;align=center;verticalAlign=middle;resizable=0;points=[];textDirection=vertical-rl;" vertex="1" connectable="0" parent="U0uxILK9Wh6L97J0J260-58">
          <mxGeometry x="-0.0153" y="-4" relative="1" as="geometry">
            <mxPoint as="offset" />
          </mxGeometry>
        </mxCell>
        <mxCell id="U0uxILK9Wh6L97J0J260-4" value="RDS VPC" style="points=[[0,0],[0.25,0],[0.5,0],[0.75,0],[1,0],[1,0.25],[1,0.5],[1,0.75],[1,1],[0.75,1],[0.5,1],[0.25,1],[0,1],[0,0.75],[0,0.5],[0,0.25]];outlineConnect=0;gradientColor=none;html=1;whiteSpace=wrap;fontSize=12;fontStyle=0;container=1;pointerEvents=0;collapsible=0;recursiveResize=0;shape=mxgraph.aws4.group;grIcon=mxgraph.aws4.group_vpc2;strokeColor=#8C4FFF;fillColor=none;verticalAlign=top;align=left;spacingLeft=30;fontColor=#AAB7B8;dashed=0;" vertex="1" parent="UEzPUAAOIrF-is8g5C7q-74">
          <mxGeometry x="45" y="560" width="270" height="280" as="geometry" />
        </mxCell>
        <mxCell id="U0uxILK9Wh6L97J0J260-15" value="Security Group" style="fontStyle=0;verticalAlign=top;align=center;spacingTop=-2;fillColor=none;rounded=0;whiteSpace=wrap;html=1;strokeColor=#FF0000;strokeWidth=2;dashed=1;container=1;collapsible=0;expand=0;recursiveResize=0;" vertex="1" parent="U0uxILK9Wh6L97J0J260-4">
          <mxGeometry x="35" y="40" width="200" height="200" as="geometry" />
        </mxCell>
        <mxCell id="U0uxILK9Wh6L97J0J260-14" value="" style="sketch=0;points=[[0,0,0],[0.25,0,0],[0.5,0,0],[0.75,0,0],[1,0,0],[0,1,0],[0.25,1,0],[0.5,1,0],[0.75,1,0],[1,1,0],[0,0.25,0],[0,0.5,0],[0,0.75,0],[1,0.25,0],[1,0.5,0],[1,0.75,0]];outlineConnect=0;fontColor=#232F3E;fillColor=#C925D1;strokeColor=#ffffff;dashed=0;verticalLabelPosition=bottom;verticalAlign=top;align=center;html=1;fontSize=12;fontStyle=0;aspect=fixed;shape=mxgraph.aws4.resourceIcon;resIcon=mxgraph.aws4.aurora;" vertex="1" parent="U0uxILK9Wh6L97J0J260-15">
          <mxGeometry x="20" y="30" width="78" height="78" as="geometry" />
        </mxCell>
        <mxCell id="U0uxILK9Wh6L97J0J260-18" value="" style="sketch=0;points=[[0,0,0],[0.25,0,0],[0.5,0,0],[0.75,0,0],[1,0,0],[0,1,0],[0.25,1,0],[0.5,1,0],[0.75,1,0],[1,1,0],[0,0.25,0],[0,0.5,0],[0,0.75,0],[1,0.25,0],[1,0.5,0],[1,0.75,0]];outlineConnect=0;fontColor=#232F3E;fillColor=#C925D1;strokeColor=#ffffff;dashed=0;verticalLabelPosition=bottom;verticalAlign=top;align=center;html=1;fontSize=12;fontStyle=0;aspect=fixed;shape=mxgraph.aws4.resourceIcon;resIcon=mxgraph.aws4.aurora;" vertex="1" parent="U0uxILK9Wh6L97J0J260-15">
          <mxGeometry x="40" y="50" width="78" height="78" as="geometry" />
        </mxCell>
        <mxCell id="U0uxILK9Wh6L97J0J260-19" value="Aurora for PostgreSQL" style="sketch=0;points=[[0,0,0],[0.25,0,0],[0.5,0,0],[0.75,0,0],[1,0,0],[0,1,0],[0.25,1,0],[0.5,1,0],[0.75,1,0],[1,1,0],[0,0.25,0],[0,0.5,0],[0,0.75,0],[1,0.25,0],[1,0.5,0],[1,0.75,0]];outlineConnect=0;fontColor=#232F3E;fillColor=#C925D1;strokeColor=#ffffff;dashed=0;verticalLabelPosition=bottom;verticalAlign=top;align=center;html=1;fontSize=12;fontStyle=0;aspect=fixed;shape=mxgraph.aws4.resourceIcon;resIcon=mxgraph.aws4.aurora;" vertex="1" parent="U0uxILK9Wh6L97J0J260-15">
          <mxGeometry x="70" y="70" width="78" height="78" as="geometry" />
        </mxCell>
        <mxCell id="U0uxILK9Wh6L97J0J260-20" value="Public Subnet" style="sketch=0;outlineConnect=0;html=1;whiteSpace=wrap;fontSize=12;fontStyle=0;shape=mxgraph.aws4.group;grIcon=mxgraph.aws4.group_subnet;strokeColor=#82b366;fillColor=#d5e8d4;verticalAlign=top;align=left;spacingLeft=30;dashed=0;" vertex="1" parent="UEzPUAAOIrF-is8g5C7q-74">
          <mxGeometry x="570" y="190" width="175" height="240" as="geometry" />
        </mxCell>
        <mxCell id="U0uxILK9Wh6L97J0J260-23" value="Public Subnet" style="sketch=0;outlineConnect=0;html=1;whiteSpace=wrap;fontSize=12;fontStyle=0;shape=mxgraph.aws4.group;grIcon=mxgraph.aws4.group_subnet;strokeColor=#82b366;fillColor=#d5e8d4;verticalAlign=top;align=left;spacingLeft=30;dashed=0;" vertex="1" parent="UEzPUAAOIrF-is8g5C7q-74">
          <mxGeometry x="760" y="190" width="175" height="240" as="geometry" />
        </mxCell>
        <mxCell id="U0uxILK9Wh6L97J0J260-24" value="Private Subnet" style="sketch=0;outlineConnect=0;html=1;whiteSpace=wrap;fontSize=12;fontStyle=0;shape=mxgraph.aws4.group;grIcon=mxgraph.aws4.group_subnet;strokeColor=#d6b656;fillColor=#fff2cc;verticalAlign=top;align=left;spacingLeft=30;dashed=0;" vertex="1" parent="UEzPUAAOIrF-is8g5C7q-74">
          <mxGeometry x="465" y="560" width="175" height="240" as="geometry" />
        </mxCell>
        <mxCell id="U0uxILK9Wh6L97J0J260-25" value="Private Subnet" style="sketch=0;outlineConnect=0;html=1;whiteSpace=wrap;fontSize=12;fontStyle=0;shape=mxgraph.aws4.group;grIcon=mxgraph.aws4.group_subnet;strokeColor=#d6b656;fillColor=#fff2cc;verticalAlign=top;align=left;spacingLeft=30;dashed=0;" vertex="1" parent="UEzPUAAOIrF-is8g5C7q-74">
          <mxGeometry x="697.5" y="560" width="175" height="240" as="geometry" />
        </mxCell>
        <mxCell id="U0uxILK9Wh6L97J0J260-26" value="Private Subnet" style="sketch=0;outlineConnect=0;html=1;whiteSpace=wrap;fontSize=12;fontStyle=0;shape=mxgraph.aws4.group;grIcon=mxgraph.aws4.group_subnet;strokeColor=#d6b656;fillColor=#fff2cc;verticalAlign=top;align=left;spacingLeft=30;dashed=0;" vertex="1" parent="UEzPUAAOIrF-is8g5C7q-74">
          <mxGeometry x="915" y="560" width="175" height="240" as="geometry" />
        </mxCell>
        <mxCell id="U0uxILK9Wh6L97J0J260-28" value="Public subnet security group" style="fontStyle=0;verticalAlign=top;align=center;spacingTop=-2;fillColor=none;rounded=0;whiteSpace=wrap;html=1;strokeColor=#FF0000;strokeWidth=2;dashed=1;container=1;collapsible=0;expand=0;recursiveResize=0;" vertex="1" parent="UEzPUAAOIrF-is8g5C7q-74">
          <mxGeometry x="585" y="226" width="335" height="190" as="geometry" />
        </mxCell>
        <mxCell id="U0uxILK9Wh6L97J0J260-29" value="Az1" style="sketch=0;outlineConnect=0;gradientColor=none;html=1;whiteSpace=wrap;fontSize=12;fontStyle=0;shape=mxgraph.aws4.group;grIcon=mxgraph.aws4.group_availability_zone;strokeColor=#545B64;fillColor=none;verticalAlign=top;align=left;spacingLeft=30;fontColor=#545B64;dashed=1;" vertex="1" parent="UEzPUAAOIrF-is8g5C7q-74">
          <mxGeometry x="455" y="530" width="205" height="300" as="geometry" />
        </mxCell>
        <mxCell id="U0uxILK9Wh6L97J0J260-31" value="Az3" style="sketch=0;outlineConnect=0;gradientColor=none;html=1;whiteSpace=wrap;fontSize=12;fontStyle=0;shape=mxgraph.aws4.group;grIcon=mxgraph.aws4.group_availability_zone;strokeColor=#545B64;fillColor=none;verticalAlign=top;align=left;spacingLeft=30;fontColor=#545B64;dashed=1;" vertex="1" parent="UEzPUAAOIrF-is8g5C7q-74">
          <mxGeometry x="905" y="530" width="205" height="300" as="geometry" />
        </mxCell>
        <mxCell id="U0uxILK9Wh6L97J0J260-30" value="Az2" style="sketch=0;outlineConnect=0;gradientColor=none;html=1;whiteSpace=wrap;fontSize=12;fontStyle=0;shape=mxgraph.aws4.group;grIcon=mxgraph.aws4.group_availability_zone;strokeColor=#545B64;fillColor=none;verticalAlign=top;align=left;spacingLeft=30;fontColor=#545B64;dashed=1;" vertex="1" parent="UEzPUAAOIrF-is8g5C7q-74">
          <mxGeometry x="682.5" y="530" width="205" height="300" as="geometry" />
        </mxCell>
        <mxCell id="U0uxILK9Wh6L97J0J260-106" style="edgeStyle=orthogonalEdgeStyle;rounded=0;orthogonalLoop=1;jettySize=auto;html=1;entryX=0.5;entryY=0;entryDx=0;entryDy=0;" edge="1" parent="UEzPUAAOIrF-is8g5C7q-74" source="U0uxILK9Wh6L97J0J260-50" target="U0uxILK9Wh6L97J0J260-44">
          <mxGeometry relative="1" as="geometry" />
        </mxCell>
        <mxCell id="U0uxILK9Wh6L97J0J260-45" value="Az1" style="sketch=0;outlineConnect=0;gradientColor=none;html=1;whiteSpace=wrap;fontSize=12;fontStyle=0;shape=mxgraph.aws4.group;grIcon=mxgraph.aws4.group_availability_zone;strokeColor=#545B64;fillColor=none;verticalAlign=top;align=left;spacingLeft=30;fontColor=#545B64;dashed=1;" vertex="1" parent="UEzPUAAOIrF-is8g5C7q-74">
          <mxGeometry x="550" y="160" width="205" height="280" as="geometry" />
        </mxCell>
        <mxCell id="U0uxILK9Wh6L97J0J260-47" value="NAT 1" style="outlineConnect=0;dashed=0;verticalLabelPosition=bottom;verticalAlign=top;align=center;html=1;shape=mxgraph.aws3.vpc_nat_gateway;fillColor=#F58536;gradientColor=none;" vertex="1" parent="UEzPUAAOIrF-is8g5C7q-74">
          <mxGeometry x="644" y="331" width="50" height="50" as="geometry" />
        </mxCell>
        <mxCell id="U0uxILK9Wh6L97J0J260-104" style="edgeStyle=orthogonalEdgeStyle;rounded=0;orthogonalLoop=1;jettySize=auto;html=1;exitX=0.5;exitY=1;exitDx=0;exitDy=0;exitPerimeter=0;" edge="1" parent="UEzPUAAOIrF-is8g5C7q-74" source="U0uxILK9Wh6L97J0J260-50" target="U0uxILK9Wh6L97J0J260-43">
          <mxGeometry relative="1" as="geometry" />
        </mxCell>
        <mxCell id="U0uxILK9Wh6L97J0J260-105" style="edgeStyle=orthogonalEdgeStyle;rounded=0;orthogonalLoop=1;jettySize=auto;html=1;" edge="1" parent="UEzPUAAOIrF-is8g5C7q-74" source="U0uxILK9Wh6L97J0J260-50" target="U0uxILK9Wh6L97J0J260-42">
          <mxGeometry relative="1" as="geometry" />
        </mxCell>
        <mxCell id="U0uxILK9Wh6L97J0J260-50" value="EXTERNAL ALB" style="outlineConnect=0;dashed=0;verticalLabelPosition=bottom;verticalAlign=top;align=center;html=1;shape=mxgraph.aws3.application_load_balancer;fillColor=#F58534;gradientColor=none;" vertex="1" parent="UEzPUAAOIrF-is8g5C7q-74">
          <mxGeometry x="724" y="259.5" width="57" height="52" as="geometry" />
        </mxCell>
        <mxCell id="U0uxILK9Wh6L97J0J260-46" value="Az2" style="sketch=0;outlineConnect=0;gradientColor=none;html=1;whiteSpace=wrap;fontSize=12;fontStyle=0;shape=mxgraph.aws4.group;grIcon=mxgraph.aws4.group_availability_zone;strokeColor=#545B64;fillColor=none;verticalAlign=top;align=left;spacingLeft=30;fontColor=#545B64;dashed=1;" vertex="1" parent="UEzPUAAOIrF-is8g5C7q-74">
          <mxGeometry x="760" y="160" width="205" height="280" as="geometry" />
        </mxCell>
        <mxCell id="U0uxILK9Wh6L97J0J260-51" value="Internet Gateway" style="sketch=0;outlineConnect=0;fontColor=#232F3E;gradientColor=none;fillColor=#8C4FFF;strokeColor=none;dashed=0;verticalLabelPosition=bottom;verticalAlign=top;align=center;html=1;fontSize=12;fontStyle=0;aspect=fixed;pointerEvents=1;shape=mxgraph.aws4.internet_gateway;" vertex="1" parent="UEzPUAAOIrF-is8g5C7q-74">
          <mxGeometry x="820" y="331" width="50" height="50" as="geometry" />
        </mxCell>
        <mxCell id="U0uxILK9Wh6L97J0J260-27" value="Private subnet security group" style="fontStyle=0;verticalAlign=top;align=center;spacingTop=-2;fillColor=none;rounded=0;whiteSpace=wrap;html=1;strokeColor=#FF0000;strokeWidth=2;dashed=1;container=1;collapsible=0;expand=0;recursiveResize=0;" vertex="1" parent="UEzPUAAOIrF-is8g5C7q-74">
          <mxGeometry x="480" y="600" width="610" height="200" as="geometry" />
        </mxCell>
        <mxCell id="U0uxILK9Wh6L97J0J260-33" value="" style="sketch=0;points=[[0,0,0],[0.25,0,0],[0.5,0,0],[0.75,0,0],[1,0,0],[0,1,0],[0.25,1,0],[0.5,1,0],[0.75,1,0],[1,1,0],[0,0.25,0],[0,0.5,0],[0,0.75,0],[1,0.25,0],[1,0.5,0],[1,0.75,0]];outlineConnect=0;fontColor=#232F3E;fillColor=#ED7100;strokeColor=#ffffff;dashed=0;verticalLabelPosition=bottom;verticalAlign=top;align=center;html=1;fontSize=12;fontStyle=0;aspect=fixed;shape=mxgraph.aws4.resourceIcon;resIcon=mxgraph.aws4.ec2;" vertex="1" parent="U0uxILK9Wh6L97J0J260-27">
          <mxGeometry x="30" y="40" width="60" height="60" as="geometry" />
        </mxCell>
        <mxCell id="U0uxILK9Wh6L97J0J260-34" value="" style="sketch=0;points=[[0,0,0],[0.25,0,0],[0.5,0,0],[0.75,0,0],[1,0,0],[0,1,0],[0.25,1,0],[0.5,1,0],[0.75,1,0],[1,1,0],[0,0.25,0],[0,0.5,0],[0,0.75,0],[1,0.25,0],[1,0.5,0],[1,0.75,0]];outlineConnect=0;fontColor=#232F3E;fillColor=#ED7100;strokeColor=#ffffff;dashed=0;verticalLabelPosition=bottom;verticalAlign=top;align=center;html=1;fontSize=12;fontStyle=0;aspect=fixed;shape=mxgraph.aws4.resourceIcon;resIcon=mxgraph.aws4.ec2;" vertex="1" parent="U0uxILK9Wh6L97J0J260-27">
          <mxGeometry x="50" y="60" width="60" height="60" as="geometry" />
        </mxCell>
        <mxCell id="U0uxILK9Wh6L97J0J260-35" value="EKS Nodes" style="sketch=0;points=[[0,0,0],[0.25,0,0],[0.5,0,0],[0.75,0,0],[1,0,0],[0,1,0],[0.25,1,0],[0.5,1,0],[0.75,1,0],[1,1,0],[0,0.25,0],[0,0.5,0],[0,0.75,0],[1,0.25,0],[1,0.5,0],[1,0.75,0]];outlineConnect=0;fontColor=#232F3E;fillColor=#ED7100;strokeColor=#ffffff;dashed=0;verticalLabelPosition=bottom;verticalAlign=top;align=center;html=1;fontSize=12;fontStyle=0;aspect=fixed;shape=mxgraph.aws4.resourceIcon;resIcon=mxgraph.aws4.ec2;" vertex="1" parent="U0uxILK9Wh6L97J0J260-27">
          <mxGeometry x="70" y="80" width="60" height="60" as="geometry" />
        </mxCell>
        <mxCell id="U0uxILK9Wh6L97J0J260-36" value="" style="sketch=0;points=[[0,0,0],[0.25,0,0],[0.5,0,0],[0.75,0,0],[1,0,0],[0,1,0],[0.25,1,0],[0.5,1,0],[0.75,1,0],[1,1,0],[0,0.25,0],[0,0.5,0],[0,0.75,0],[1,0.25,0],[1,0.5,0],[1,0.75,0]];outlineConnect=0;fontColor=#232F3E;fillColor=#ED7100;strokeColor=#ffffff;dashed=0;verticalLabelPosition=bottom;verticalAlign=top;align=center;html=1;fontSize=12;fontStyle=0;aspect=fixed;shape=mxgraph.aws4.resourceIcon;resIcon=mxgraph.aws4.ec2;" vertex="1" parent="U0uxILK9Wh6L97J0J260-27">
          <mxGeometry x="250" y="50" width="60" height="60" as="geometry" />
        </mxCell>
        <mxCell id="U0uxILK9Wh6L97J0J260-37" value="" style="sketch=0;points=[[0,0,0],[0.25,0,0],[0.5,0,0],[0.75,0,0],[1,0,0],[0,1,0],[0.25,1,0],[0.5,1,0],[0.75,1,0],[1,1,0],[0,0.25,0],[0,0.5,0],[0,0.75,0],[1,0.25,0],[1,0.5,0],[1,0.75,0]];outlineConnect=0;fontColor=#232F3E;fillColor=#ED7100;strokeColor=#ffffff;dashed=0;verticalLabelPosition=bottom;verticalAlign=top;align=center;html=1;fontSize=12;fontStyle=0;aspect=fixed;shape=mxgraph.aws4.resourceIcon;resIcon=mxgraph.aws4.ec2;" vertex="1" parent="U0uxILK9Wh6L97J0J260-27">
          <mxGeometry x="270" y="70" width="60" height="60" as="geometry" />
        </mxCell>
        <mxCell id="U0uxILK9Wh6L97J0J260-38" value="EKS Nodes" style="sketch=0;points=[[0,0,0],[0.25,0,0],[0.5,0,0],[0.75,0,0],[1,0,0],[0,1,0],[0.25,1,0],[0.5,1,0],[0.75,1,0],[1,1,0],[0,0.25,0],[0,0.5,0],[0,0.75,0],[1,0.25,0],[1,0.5,0],[1,0.75,0]];outlineConnect=0;fontColor=#232F3E;fillColor=#ED7100;strokeColor=#ffffff;dashed=0;verticalLabelPosition=bottom;verticalAlign=top;align=center;html=1;fontSize=12;fontStyle=0;aspect=fixed;shape=mxgraph.aws4.resourceIcon;resIcon=mxgraph.aws4.ec2;" vertex="1" parent="U0uxILK9Wh6L97J0J260-27">
          <mxGeometry x="290" y="90" width="60" height="60" as="geometry" />
        </mxCell>
        <mxCell id="U0uxILK9Wh6L97J0J260-39" value="" style="sketch=0;points=[[0,0,0],[0.25,0,0],[0.5,0,0],[0.75,0,0],[1,0,0],[0,1,0],[0.25,1,0],[0.5,1,0],[0.75,1,0],[1,1,0],[0,0.25,0],[0,0.5,0],[0,0.75,0],[1,0.25,0],[1,0.5,0],[1,0.75,0]];outlineConnect=0;fontColor=#232F3E;fillColor=#ED7100;strokeColor=#ffffff;dashed=0;verticalLabelPosition=bottom;verticalAlign=top;align=center;html=1;fontSize=12;fontStyle=0;aspect=fixed;shape=mxgraph.aws4.resourceIcon;resIcon=mxgraph.aws4.ec2;" vertex="1" parent="U0uxILK9Wh6L97J0J260-27">
          <mxGeometry x="480" y="50" width="60" height="60" as="geometry" />
        </mxCell>
        <mxCell id="U0uxILK9Wh6L97J0J260-40" value="" style="sketch=0;points=[[0,0,0],[0.25,0,0],[0.5,0,0],[0.75,0,0],[1,0,0],[0,1,0],[0.25,1,0],[0.5,1,0],[0.75,1,0],[1,1,0],[0,0.25,0],[0,0.5,0],[0,0.75,0],[1,0.25,0],[1,0.5,0],[1,0.75,0]];outlineConnect=0;fontColor=#232F3E;fillColor=#ED7100;strokeColor=#ffffff;dashed=0;verticalLabelPosition=bottom;verticalAlign=top;align=center;html=1;fontSize=12;fontStyle=0;aspect=fixed;shape=mxgraph.aws4.resourceIcon;resIcon=mxgraph.aws4.ec2;" vertex="1" parent="U0uxILK9Wh6L97J0J260-27">
          <mxGeometry x="500" y="70" width="60" height="60" as="geometry" />
        </mxCell>
        <mxCell id="U0uxILK9Wh6L97J0J260-41" value="EKS Nodes" style="sketch=0;points=[[0,0,0],[0.25,0,0],[0.5,0,0],[0.75,0,0],[1,0,0],[0,1,0],[0.25,1,0],[0.5,1,0],[0.75,1,0],[1,1,0],[0,0.25,0],[0,0.5,0],[0,0.75,0],[1,0.25,0],[1,0.5,0],[1,0.75,0]];outlineConnect=0;fontColor=#232F3E;fillColor=#ED7100;strokeColor=#ffffff;dashed=0;verticalLabelPosition=bottom;verticalAlign=top;align=center;html=1;fontSize=12;fontStyle=0;aspect=fixed;shape=mxgraph.aws4.resourceIcon;resIcon=mxgraph.aws4.ec2;" vertex="1" parent="U0uxILK9Wh6L97J0J260-27">
          <mxGeometry x="520" y="90" width="60" height="60" as="geometry" />
        </mxCell>
        <mxCell id="U0uxILK9Wh6L97J0J260-42" value="Auto Scaling group" style="points=[[0,0],[0.25,0],[0.5,0],[0.75,0],[1,0],[1,0.25],[1,0.5],[1,0.75],[1,1],[0.75,1],[0.5,1],[0.25,1],[0,1],[0,0.75],[0,0.5],[0,0.25]];outlineConnect=0;gradientColor=none;html=1;whiteSpace=wrap;fontSize=12;fontStyle=0;container=1;pointerEvents=0;collapsible=0;recursiveResize=0;shape=mxgraph.aws4.groupCenter;grIcon=mxgraph.aws4.group_auto_scaling_group;grStroke=1;strokeColor=#D86613;fillColor=none;verticalAlign=top;align=center;fontColor=#D86613;dashed=1;spacingTop=25;" vertex="1" parent="U0uxILK9Wh6L97J0J260-27">
          <mxGeometry x="10" y="-10" width="140" height="200" as="geometry" />
        </mxCell>
        <mxCell id="U0uxILK9Wh6L97J0J260-43" value="Auto Scaling group" style="points=[[0,0],[0.25,0],[0.5,0],[0.75,0],[1,0],[1,0.25],[1,0.5],[1,0.75],[1,1],[0.75,1],[0.5,1],[0.25,1],[0,1],[0,0.75],[0,0.5],[0,0.25]];outlineConnect=0;gradientColor=none;html=1;whiteSpace=wrap;fontSize=12;fontStyle=0;container=1;pointerEvents=0;collapsible=0;recursiveResize=0;shape=mxgraph.aws4.groupCenter;grIcon=mxgraph.aws4.group_auto_scaling_group;grStroke=1;strokeColor=#D86613;fillColor=none;verticalAlign=top;align=center;fontColor=#D86613;dashed=1;spacingTop=25;" vertex="1" parent="U0uxILK9Wh6L97J0J260-27">
          <mxGeometry x="235" width="140" height="200" as="geometry" />
        </mxCell>
        <mxCell id="U0uxILK9Wh6L97J0J260-44" value="Auto Scaling group" style="points=[[0,0],[0.25,0],[0.5,0],[0.75,0],[1,0],[1,0.25],[1,0.5],[1,0.75],[1,1],[0.75,1],[0.5,1],[0.25,1],[0,1],[0,0.75],[0,0.5],[0,0.25]];outlineConnect=0;gradientColor=none;html=1;whiteSpace=wrap;fontSize=12;fontStyle=0;container=1;pointerEvents=0;collapsible=0;recursiveResize=0;shape=mxgraph.aws4.groupCenter;grIcon=mxgraph.aws4.group_auto_scaling_group;grStroke=1;strokeColor=#D86613;fillColor=none;verticalAlign=top;align=center;fontColor=#D86613;dashed=1;spacingTop=25;" vertex="1" parent="U0uxILK9Wh6L97J0J260-27">
          <mxGeometry x="450" width="140" height="200" as="geometry" />
        </mxCell>
        <mxCell id="U0uxILK9Wh6L97J0J260-52" value="AWS EKS VPC" style="sketch=0;outlineConnect=0;gradientColor=none;html=1;whiteSpace=wrap;fontSize=12;fontStyle=0;shape=mxgraph.aws4.group;grIcon=mxgraph.aws4.group_vpc;strokeColor=#209613;fillColor=none;verticalAlign=top;align=left;spacingLeft=30;fontColor=#879196;dashed=0;" vertex="1" parent="UEzPUAAOIrF-is8g5C7q-74">
          <mxGeometry x="30" y="141" width="315" height="330" as="geometry" />
        </mxCell>
        <mxCell id="U0uxILK9Wh6L97J0J260-54" style="edgeStyle=orthogonalEdgeStyle;rounded=0;orthogonalLoop=1;jettySize=auto;html=1;startArrow=classic;startFill=1;" edge="1" parent="UEzPUAAOIrF-is8g5C7q-74" source="U0uxILK9Wh6L97J0J260-53" target="U0uxILK9Wh6L97J0J260-52">
          <mxGeometry relative="1" as="geometry" />
        </mxCell>
        <mxCell id="U0uxILK9Wh6L97J0J260-53" value="" style="outlineConnect=0;dashed=0;verticalLabelPosition=bottom;verticalAlign=top;align=center;html=1;shape=mxgraph.aws3.elastic_network_interface;fillColor=#F58534;gradientColor=none;" vertex="1" parent="UEzPUAAOIrF-is8g5C7q-74">
          <mxGeometry x="388" y="281" width="52" height="50" as="geometry" />
        </mxCell>
        <mxCell id="U0uxILK9Wh6L97J0J260-55" value="" style="sketch=0;points=[[0,0,0],[0.25,0,0],[0.5,0,0],[0.75,0,0],[1,0,0],[0,1,0],[0.25,1,0],[0.5,1,0],[0.75,1,0],[1,1,0],[0,0.25,0],[0,0.5,0],[0,0.75,0],[1,0.25,0],[1,0.5,0],[1,0.75,0]];outlineConnect=0;fontColor=#232F3E;fillColor=#ED7100;strokeColor=#ffffff;dashed=0;verticalLabelPosition=bottom;verticalAlign=top;align=center;html=1;fontSize=12;fontStyle=0;aspect=fixed;shape=mxgraph.aws4.resourceIcon;resIcon=mxgraph.aws4.eks;" vertex="1" parent="UEzPUAAOIrF-is8g5C7q-74">
          <mxGeometry x="109.25" y="233.5" width="78" height="78" as="geometry" />
        </mxCell>
        <mxCell id="U0uxILK9Wh6L97J0J260-56" value="" style="sketch=0;points=[[0,0,0],[0.25,0,0],[0.5,0,0],[0.75,0,0],[1,0,0],[0,1,0],[0.25,1,0],[0.5,1,0],[0.75,1,0],[1,1,0],[0,0.25,0],[0,0.5,0],[0,0.75,0],[1,0.25,0],[1,0.5,0],[1,0.75,0]];outlineConnect=0;fontColor=#232F3E;fillColor=#ED7100;strokeColor=#ffffff;dashed=0;verticalLabelPosition=bottom;verticalAlign=top;align=center;html=1;fontSize=12;fontStyle=0;aspect=fixed;shape=mxgraph.aws4.resourceIcon;resIcon=mxgraph.aws4.eks;" vertex="1" parent="UEzPUAAOIrF-is8g5C7q-74">
          <mxGeometry x="139.25" y="260.5" width="78" height="78" as="geometry" />
        </mxCell>
        <mxCell id="U0uxILK9Wh6L97J0J260-57" value="EKS Control Plane" style="sketch=0;points=[[0,0,0],[0.25,0,0],[0.5,0,0],[0.75,0,0],[1,0,0],[0,1,0],[0.25,1,0],[0.5,1,0],[0.75,1,0],[1,1,0],[0,0.25,0],[0,0.5,0],[0,0.75,0],[1,0.25,0],[1,0.5,0],[1,0.75,0]];outlineConnect=0;fontColor=#232F3E;fillColor=#ED7100;strokeColor=#ffffff;dashed=0;verticalLabelPosition=bottom;verticalAlign=top;align=center;html=1;fontSize=12;fontStyle=0;aspect=fixed;shape=mxgraph.aws4.resourceIcon;resIcon=mxgraph.aws4.eks;" vertex="1" parent="UEzPUAAOIrF-is8g5C7q-74">
          <mxGeometry x="172.75" y="288.5" width="78" height="78" as="geometry" />
        </mxCell>
        <mxCell id="U0uxILK9Wh6L97J0J260-63" value="Network Load Balancer" style="sketch=0;outlineConnect=0;fontColor=#232F3E;gradientColor=none;fillColor=#8C4FFF;strokeColor=none;dashed=0;verticalLabelPosition=bottom;verticalAlign=top;align=center;html=1;fontSize=12;fontStyle=0;aspect=fixed;pointerEvents=1;shape=mxgraph.aws4.network_load_balancer;" vertex="1" parent="UEzPUAAOIrF-is8g5C7q-74">
          <mxGeometry x="165" y="100" width="78" height="78" as="geometry" />
        </mxCell>
        <mxCell id="U0uxILK9Wh6L97J0J260-78" style="edgeStyle=orthogonalEdgeStyle;rounded=0;orthogonalLoop=1;jettySize=auto;html=1;" edge="1" parent="UEzPUAAOIrF-is8g5C7q-74" source="U0uxILK9Wh6L97J0J260-73" target="U0uxILK9Wh6L97J0J260-75">
          <mxGeometry relative="1" as="geometry" />
        </mxCell>
        <mxCell id="U0uxILK9Wh6L97J0J260-73" value="Cloudfront Distribution" style="outlineConnect=0;dashed=0;verticalLabelPosition=bottom;verticalAlign=top;align=center;html=1;shape=mxgraph.aws3.cloudfront;fillColor=#F58536;gradientColor=none;" vertex="1" parent="UEzPUAAOIrF-is8g5C7q-74">
          <mxGeometry x="570" y="7" width="76.5" height="93" as="geometry" />
        </mxCell>
        <mxCell id="U0uxILK9Wh6L97J0J260-75" value="Web Application Firewall" style="sketch=0;points=[[0,0,0],[0.25,0,0],[0.5,0,0],[0.75,0,0],[1,0,0],[0,1,0],[0.25,1,0],[0.5,1,0],[0.75,1,0],[1,1,0],[0,0.25,0],[0,0.5,0],[0,0.75,0],[1,0.25,0],[1,0.5,0],[1,0.75,0]];outlineConnect=0;fontColor=#232F3E;fillColor=#DD344C;strokeColor=#ffffff;dashed=0;verticalLabelPosition=bottom;verticalAlign=top;align=center;html=1;fontSize=12;fontStyle=0;aspect=fixed;shape=mxgraph.aws4.resourceIcon;resIcon=mxgraph.aws4.waf;" vertex="1" parent="UEzPUAAOIrF-is8g5C7q-74">
          <mxGeometry x="806" y="14.5" width="78" height="78" as="geometry" />
        </mxCell>
        <mxCell id="U0uxILK9Wh6L97J0J260-79" style="edgeStyle=orthogonalEdgeStyle;rounded=0;orthogonalLoop=1;jettySize=auto;html=1;entryX=1;entryY=0.5;entryDx=0;entryDy=0;entryPerimeter=0;" edge="1" parent="UEzPUAAOIrF-is8g5C7q-74" source="U0uxILK9Wh6L97J0J260-75" target="U0uxILK9Wh6L97J0J260-50">
          <mxGeometry relative="1" as="geometry" />
        </mxCell>
        <mxCell id="U0uxILK9Wh6L97J0J260-85" style="edgeStyle=orthogonalEdgeStyle;rounded=0;orthogonalLoop=1;jettySize=auto;html=1;" edge="1" parent="UEzPUAAOIrF-is8g5C7q-74" source="U0uxILK9Wh6L97J0J260-82" target="U0uxILK9Wh6L97J0J260-73">
          <mxGeometry relative="1" as="geometry" />
        </mxCell>
        <mxCell id="U0uxILK9Wh6L97J0J260-82" value="Route 53 for DNS" style="sketch=0;points=[[0,0,0],[0.25,0,0],[0.5,0,0],[0.75,0,0],[1,0,0],[0,1,0],[0.25,1,0],[0.5,1,0],[0.75,1,0],[1,1,0],[0,0.25,0],[0,0.5,0],[0,0.75,0],[1,0.25,0],[1,0.5,0],[1,0.75,0]];outlineConnect=0;fontColor=#232F3E;fillColor=#8C4FFF;strokeColor=#ffffff;dashed=0;verticalLabelPosition=bottom;verticalAlign=top;align=center;html=1;fontSize=12;fontStyle=0;aspect=fixed;shape=mxgraph.aws4.resourceIcon;resIcon=mxgraph.aws4.route_53;" vertex="1" parent="UEzPUAAOIrF-is8g5C7q-74">
          <mxGeometry x="388" y="14.5" width="78" height="78" as="geometry" />
        </mxCell>
        <mxCell id="U0uxILK9Wh6L97J0J260-64" style="edgeStyle=orthogonalEdgeStyle;rounded=0;orthogonalLoop=1;jettySize=auto;html=1;startArrow=classic;startFill=1;" edge="1" parent="1" source="U0uxILK9Wh6L97J0J260-61" target="U0uxILK9Wh6L97J0J260-63">
          <mxGeometry relative="1" as="geometry" />
        </mxCell>
        <mxCell id="U0uxILK9Wh6L97J0J260-61" value="Cluster Users" style="sketch=0;outlineConnect=0;fontColor=#232F3E;gradientColor=none;fillColor=#232F3D;strokeColor=none;dashed=0;verticalLabelPosition=bottom;verticalAlign=top;align=center;html=1;fontSize=12;fontStyle=0;aspect=fixed;pointerEvents=1;shape=mxgraph.aws4.user;" vertex="1" parent="1">
          <mxGeometry x="60" y="-290" width="78" height="78" as="geometry" />
        </mxCell>
        <mxCell id="U0uxILK9Wh6L97J0J260-80" value="END USERS" style="fontColor=#0066CC;verticalAlign=top;verticalLabelPosition=bottom;labelPosition=center;align=center;html=1;outlineConnect=0;fillColor=#CCCCCC;strokeColor=#6881B3;gradientColor=none;gradientDirection=north;strokeWidth=2;shape=mxgraph.networks.pc;" vertex="1" parent="1">
          <mxGeometry x="830" y="-510" width="100" height="70" as="geometry" />
        </mxCell>
        <mxCell id="U0uxILK9Wh6L97J0J260-81" value="Shared Services Account" style="points=[[0,0],[0.25,0],[0.5,0],[0.75,0],[1,0],[1,0.25],[1,0.5],[1,0.75],[1,1],[0.75,1],[0.5,1],[0.25,1],[0,1],[0,0.75],[0,0.5],[0,0.25]];outlineConnect=0;gradientColor=none;html=1;whiteSpace=wrap;fontSize=12;fontStyle=0;container=1;pointerEvents=0;collapsible=0;recursiveResize=0;shape=mxgraph.aws4.group;grIcon=mxgraph.aws4.group_account;strokeColor=#CD2264;fillColor=none;verticalAlign=top;align=left;spacingLeft=30;fontColor=#CD2264;dashed=0;" vertex="1" parent="1">
          <mxGeometry x="40" y="-754" width="630" height="374" as="geometry" />
        </mxCell>
        <mxCell id="U0uxILK9Wh6L97J0J260-88" value="" style="rounded=1;whiteSpace=wrap;html=1;dashed=1;dashPattern=12 12;" vertex="1" parent="U0uxILK9Wh6L97J0J260-81">
          <mxGeometry x="34.25" y="54" width="335.75" height="286" as="geometry" />
        </mxCell>
        <mxCell id="U0uxILK9Wh6L97J0J260-87" value="CodePipeline" style="outlineConnect=0;dashed=0;verticalLabelPosition=bottom;verticalAlign=top;align=center;html=1;shape=mxgraph.aws3.codepipeline;fillColor=#759C3E;gradientColor=none;" vertex="1" parent="U0uxILK9Wh6L97J0J260-81">
          <mxGeometry x="30" y="24" width="67.5" height="81" as="geometry" />
        </mxCell>
        <mxCell id="U0uxILK9Wh6L97J0J260-93" style="edgeStyle=orthogonalEdgeStyle;rounded=0;orthogonalLoop=1;jettySize=auto;html=1;" edge="1" parent="U0uxILK9Wh6L97J0J260-81" source="U0uxILK9Wh6L97J0J260-89" target="U0uxILK9Wh6L97J0J260-92">
          <mxGeometry relative="1" as="geometry" />
        </mxCell>
        <mxCell id="U0uxILK9Wh6L97J0J260-99" value="Build image" style="edgeLabel;html=1;align=center;verticalAlign=middle;resizable=0;points=[];" vertex="1" connectable="0" parent="U0uxILK9Wh6L97J0J260-93">
          <mxGeometry x="-0.0607" y="-1" relative="1" as="geometry">
            <mxPoint as="offset" />
          </mxGeometry>
        </mxCell>
        <mxCell id="U0uxILK9Wh6L97J0J260-89" value="Code Build" style="outlineConnect=0;dashed=0;verticalLabelPosition=bottom;verticalAlign=top;align=center;html=1;shape=mxgraph.aws3.codebuild;fillColor=#759C3E;gradientColor=none;" vertex="1" parent="U0uxILK9Wh6L97J0J260-81">
          <mxGeometry x="163.87" y="74" width="76.5" height="93" as="geometry" />
        </mxCell>
        <mxCell id="U0uxILK9Wh6L97J0J260-92" value="Amazon ECR" style="outlineConnect=0;dashed=0;verticalLabelPosition=bottom;verticalAlign=top;align=center;html=1;shape=mxgraph.aws3.ecr_registry;fillColor=#F58534;gradientColor=none;" vertex="1" parent="U0uxILK9Wh6L97J0J260-81">
          <mxGeometry x="300" y="157" width="57" height="60" as="geometry" />
        </mxCell>
        <mxCell id="U0uxILK9Wh6L97J0J260-94" value="Code Deploy" style="outlineConnect=0;dashed=0;verticalLabelPosition=bottom;verticalAlign=top;align=center;html=1;shape=mxgraph.aws3.codedeploy;fillColor=#759C3E;gradientColor=none;" vertex="1" parent="U0uxILK9Wh6L97J0J260-81">
          <mxGeometry x="70" y="224" width="67.5" height="81" as="geometry" />
        </mxCell>
        <mxCell id="U0uxILK9Wh6L97J0J260-95" style="edgeStyle=orthogonalEdgeStyle;rounded=0;orthogonalLoop=1;jettySize=auto;html=1;entryX=0.5;entryY=1;entryDx=0;entryDy=0;entryPerimeter=0;" edge="1" parent="U0uxILK9Wh6L97J0J260-81" source="U0uxILK9Wh6L97J0J260-94" target="U0uxILK9Wh6L97J0J260-92">
          <mxGeometry relative="1" as="geometry" />
        </mxCell>
        <mxCell id="U0uxILK9Wh6L97J0J260-97" value="Pull Image" style="edgeLabel;html=1;align=center;verticalAlign=middle;resizable=0;points=[];" vertex="1" connectable="0" parent="U0uxILK9Wh6L97J0J260-95">
          <mxGeometry x="-0.0514" relative="1" as="geometry">
            <mxPoint as="offset" />
          </mxGeometry>
        </mxCell>
        <mxCell id="U0uxILK9Wh6L97J0J260-103" style="edgeStyle=orthogonalEdgeStyle;rounded=0;orthogonalLoop=1;jettySize=auto;html=1;" edge="1" parent="U0uxILK9Wh6L97J0J260-81" source="U0uxILK9Wh6L97J0J260-102" target="U0uxILK9Wh6L97J0J260-89">
          <mxGeometry relative="1" as="geometry" />
        </mxCell>
        <mxCell id="U0uxILK9Wh6L97J0J260-102" value="Various artifacts" style="sketch=0;points=[[0,0,0],[0.25,0,0],[0.5,0,0],[0.75,0,0],[1,0,0],[0,1,0],[0.25,1,0],[0.5,1,0],[0.75,1,0],[1,1,0],[0,0.25,0],[0,0.5,0],[0,0.75,0],[1,0.25,0],[1,0.5,0],[1,0.75,0]];outlineConnect=0;fontColor=#232F3E;fillColor=#7AA116;strokeColor=#ffffff;dashed=0;verticalLabelPosition=bottom;verticalAlign=top;align=center;html=1;fontSize=12;fontStyle=0;aspect=fixed;shape=mxgraph.aws4.resourceIcon;resIcon=mxgraph.aws4.s3;" vertex="1" parent="U0uxILK9Wh6L97J0J260-81">
          <mxGeometry x="510" y="44" width="70" height="70" as="geometry" />
        </mxCell>
        <mxCell id="U0uxILK9Wh6L97J0J260-91" style="edgeStyle=orthogonalEdgeStyle;rounded=0;orthogonalLoop=1;jettySize=auto;html=1;" edge="1" parent="1" source="U0uxILK9Wh6L97J0J260-90" target="U0uxILK9Wh6L97J0J260-89">
          <mxGeometry relative="1" as="geometry" />
        </mxCell>
        <mxCell id="U0uxILK9Wh6L97J0J260-98" value="Trigger Build + Test" style="edgeLabel;html=1;align=center;verticalAlign=middle;resizable=0;points=[];textDirection=vertical-lr;" vertex="1" connectable="0" parent="U0uxILK9Wh6L97J0J260-91">
          <mxGeometry x="0.0771" y="-1" relative="1" as="geometry">
            <mxPoint as="offset" />
          </mxGeometry>
        </mxCell>
        <mxCell id="U0uxILK9Wh6L97J0J260-90" value="GitHub Repo" style="shape=image;html=1;verticalAlign=top;verticalLabelPosition=bottom;labelBackgroundColor=#ffffff;imageAspect=0;aspect=fixed;image=https://icons.diagrams.net/icon-cache1/Picons_Social-2097/github_rounded-685.svg" vertex="1" parent="1">
          <mxGeometry x="190.12" y="-990" width="104" height="104" as="geometry" />
        </mxCell>
        <mxCell id="U0uxILK9Wh6L97J0J260-96" style="edgeStyle=orthogonalEdgeStyle;rounded=0;orthogonalLoop=1;jettySize=auto;html=1;" edge="1" parent="1" source="U0uxILK9Wh6L97J0J260-94" target="U0uxILK9Wh6L97J0J260-63">
          <mxGeometry relative="1" as="geometry" />
        </mxCell>
        <mxCell id="U0uxILK9Wh6L97J0J260-100" value="Deploy new Version" style="edgeLabel;html=1;align=center;verticalAlign=middle;resizable=0;points=[];rotation=90;" vertex="1" connectable="0" parent="U0uxILK9Wh6L97J0J260-96">
          <mxGeometry x="-0.0106" y="-4" relative="1" as="geometry">
            <mxPoint as="offset" />
          </mxGeometry>
        </mxCell>
      </root>
    </mxGraphModel>
  </diagram>
</mxfile>
